<?xml version="1.0" encoding="UTF-8"?>
<svg width="263px" height="124px" viewBox="0 0 263 124" version="1.1" xmlns="http://www.w3.org/2000/svg" xmlns:xlink="http://www.w3.org/1999/xlink">
    <title>87B69162-D963-45EC-859A-810673DDC3F6</title>
    <g id="Training-Theming-Courses" stroke="none" stroke-width="1" fill="none" fill-rule="evenodd">
        <g id="ACME-About" transform="translate(-522.000000, -3837.000000)">
            <g id="Press-#1" transform="translate(80.000000, 3779.000000)">
                <g id="#2" transform="translate(442.000000, 58.000000)">
                    <polygon id="Rectangle-5" points="0 0 262 0 262 124 0 124"></polygon>
                    <g id="Logo" transform="translate(42.000000, 22.000000)" fill="#615F67">
                        <g id="Logo-#7" transform="translate(28.000000, 24.000000)">
                            <path d="M0.909390677,30.324778 C2.09554495,32.3810999 4.2209545,33.6087481 6.59484573,33.6087481 L6.59488013,33.6087481 C9.28696004,33.6087481 11.7966526,32.1610721 13.1445161,29.8307048 L16.2980178,24.3785239 L0.595950055,24.3785239 C-0.264102109,26.2947436 -0.159679245,28.471384 0.909390677,30.324778" id="Fill-2"></path>
                            <path d="M27.2536104,29.8256127 C28.600889,32.159111 31.1116826,33.6087481 33.8062053,33.6087481 L33.8077536,33.6087481 C36.1818513,33.6087481 38.3078801,32.3812719 39.494929,30.3252253 C40.564687,28.4723818 40.6703141,26.2953973 39.8119822,24.3785239 L24.1087103,24.3785239 L27.2536104,29.8256127" id="Fill-3"></path>
                            <polyline id="Fill-4" points="38.420182 21.8972508 32.781313 12.1333518 7.62730744 12.1333518 1.9884384 21.8972508 38.420182 21.8972508"></polyline>
                            <path d="M20.5100266,0.024772475 L19.9107392,0.024772475 C16.6497525,0.024772475 13.6108923,1.77897336 11.9799689,4.60276027 L9.06125527,9.6520788 L31.3506337,9.6520788 L28.440212,4.60176249 C26.8098735,1.77897336 23.7709789,0.024772475 20.5100266,0.024772475" id="Fill-5"></path>
                            <path d="M50.6359367,20.5803529 C50.6359367,18.6290044 51.499636,17.1894828 53.1310755,16.5496992 C53.8668524,16.261788 55.1464195,16.1018679 56.9697769,16.1018679 L57.9294351,16.1018679 C58.7292075,16.1018679 59.4329523,16.1338313 60.0727014,16.1978269 L60.0727014,14.3744351 C60.0727014,12.0392508 58.8891276,11.2395128 56.2020366,11.2395128 C55.082424,11.2395128 53.9948091,11.3994329 52.9071598,11.7193418 C52.4273307,11.8472986 52.1714173,11.8472986 52.0754584,11.4634284 L51.9155039,10.7916471 C51.7875472,10.4077769 51.8835061,10.1838613 52.2673762,10.0879023 C53.6429023,9.67203441 55.0184284,9.44811876 56.3619911,9.44811876 C60.456606,9.44811876 62.1520067,10.8236448 62.1520067,14.1505194 L62.1520067,25.0908013 C62.1520067,25.3467148 62.0880455,25.4107103 61.8001343,25.4107103 L60.7445172,25.4107103 C60.456606,25.4107103 60.3286493,25.3147514 60.3286493,25.0908013 L60.2646537,24.0031865 L60.2006582,24.0031865 C59.4969478,25.1227991 58.3773008,25.6986215 56.8098224,25.6986215 L55.2103807,25.6986215 C53.8028568,25.6986215 52.5232897,25.2827536 51.7875472,24.5469767 C51.0198069,23.7792708 50.6359367,22.7876149 50.6359367,21.5400111 L50.6359367,20.5803529 Z M52.7472053,21.2840977 C52.7472053,22.275788 52.9711554,22.947535 53.4189867,23.3634029 C53.8348546,23.747273 54.4746382,23.9391909 55.3703352,23.9391909 L56.6819001,23.9391909 C58.8251665,23.9391909 60.0727014,22.7876149 60.0727014,20.6123507 L60.0727014,17.9572231 C59.560909,17.8932619 58.9211254,17.8612642 58.1533507,17.8612642 L56.3619911,17.8612642 C55.0184284,17.8612642 54.090768,18.0851798 53.5469434,18.5010477 C53.0031188,18.9169156 52.7472053,19.6206604 52.7472053,20.6123507 L52.7472053,21.2840977 L52.7472053,21.2840977 Z" id="Fill-6"></path>
                            <path d="M66.5021221,4.10593452 C66.5021221,3.88201887 66.6300444,3.75402775 66.8859578,3.75402775 L68.1975572,3.75402775 C68.4534362,3.75402775 68.5813929,3.88201887 68.5813929,4.10593452 L68.5813929,21.2201365 C68.5813929,22.3717469 68.6133907,22.7556171 68.8692697,23.2354462 C69.0292586,23.4593618 69.4131287,23.5873185 70.0209145,23.5873185 L70.8846138,23.5873185 C71.076566,23.5873185 71.2685183,23.6192819 71.2685183,23.9391909 L71.2685183,25.0268402 C71.2685183,25.2827536 71.172525,25.4107103 70.9485749,25.4107103 L69.7330033,25.4107103 C68.5813929,25.4107103 67.749657,25.1547969 67.2698624,24.6749678 C66.7580011,24.1311432 66.5021221,23.1394872 66.5021221,21.7319634 L66.5021221,4.10593452" id="Fill-7"></path>
                            <path d="M74.403303,5.51345838 C74.403303,4.48980466 74.9791254,4.00994118 75.8748568,4.00994118 L76.0027791,4.00994118 C76.9304739,4.00994118 77.410303,4.52176804 77.410303,5.51345838 L77.410303,5.70537625 C77.410303,6.72902997 76.8665128,7.24085683 76.0027791,7.24085683 L75.8748568,7.24085683 C74.8192053,7.24085683 74.403303,6.76102775 74.403303,5.70537625 L74.403303,5.51345838 Z M74.8831665,10.0879023 C74.8831665,9.86395228 75.0111232,9.73602997 75.2670366,9.73602997 L76.5786016,9.73602997 C76.834515,9.73602997 76.9624717,9.86395228 76.9624717,10.0879023 L76.9624717,25.1547969 C76.9624717,25.3147514 76.8665128,25.4107103 76.6745605,25.4107103 L75.1390799,25.4107103 C74.9791254,25.4107103 74.8831665,25.3147514 74.8831665,25.1547969 L74.8831665,10.0879023 L74.8831665,10.0879023 Z" id="Fill-8"></path>
                            <path d="M81.0246759,16.9975305 C81.0246759,11.3354717 82.9120289,9.44811876 87.1665982,9.44811876 C89.2139057,9.44811876 90.6533929,10.0879023 91.5170921,11.3674695 L91.5810877,11.3674695 L91.7410078,10.1198657 C91.7730055,9.86395228 91.9329256,9.73602997 92.2208368,9.73602997 L92.9885771,9.73602997 C93.3404839,9.73602997 93.4364772,9.79999112 93.4364772,10.1518635 L93.4364772,30.7208968 C93.4364772,30.9448468 93.3404839,31.0727691 93.1165683,31.0727691 L91.6770466,31.0727691 C91.453131,31.0727691 91.357172,30.9448468 91.357172,30.7208968 L91.357172,24.0031865 L91.2932109,24.0031865 C90.3974795,25.1227991 88.9899556,25.6986215 87.0706049,25.6986215 C82.7200766,25.6986215 81.0246759,23.6192819 81.0246759,18.5010477 L81.0246759,16.9975305 Z M83.1359789,18.3410932 C83.1359789,20.5163574 83.4878169,22.0198402 84.191596,22.8195782 C84.8633774,23.5873185 85.75904,23.9072275 87.3265527,23.9072275 C89.8856182,23.9072275 91.357172,22.5956626 91.357172,20.0685261 L91.357172,15.3341276 C91.357172,12.7429956 89.8856182,11.2395128 87.198596,11.2395128 C85.7910377,11.2395128 84.9593363,11.527424 84.3195527,12.1991709 C83.5198147,13.0629046 83.1359789,14.7583052 83.1359789,17.2854417 L83.1359789,18.3410932 L83.1359789,18.3410932 Z" id="Fill-9"></path>
                            <path d="M97.5947092,10.2478568 C97.5947092,9.95994562 97.7866271,9.73602997 98.0425405,9.73602997 L99.2261143,9.73602997 C99.5140599,9.73602997 99.6740144,9.89595006 99.6740144,10.1838613 L99.6740144,20.6443485 C99.6740144,21.9238812 99.8978957,22.6276604 100.505681,23.1394872 C101.049506,23.6513141 102.009199,23.9072275 103.38469,23.9072275 C104.69629,23.9072275 105.68798,23.6192819 106.327695,23.0114961 C106.871554,22.4997037 107.063472,21.9238812 107.063472,20.6443485 L107.063472,10.1518635 C107.063472,9.89595006 107.223392,9.73602997 107.447307,9.73602997 L108.790905,9.73602997 C109.01482,9.73602997 109.142777,9.86395228 109.142777,10.1518635 L109.142777,20.9002275 C109.142777,22.531667 108.662948,23.747273 107.735253,24.5469767 C106.807593,25.3467148 105.560023,25.6986215 103.38469,25.6986215 C101.401413,25.6986215 99.9618912,25.3147514 99.0341964,24.5469767 C98.0745039,23.747273 97.5947092,22.531667 97.5947092,20.9002275 L97.5947092,10.2478568" id="Fill-10"></path>
                            <path d="M112.469479,20.5803529 C112.469479,18.6290044 113.333213,17.1894828 114.964618,16.5496992 C115.700361,16.261788 116.979928,16.1018679 118.80332,16.1018679 L119.763012,16.1018679 C120.56275,16.1018679 121.266529,16.1338313 121.906244,16.1978269 L121.906244,14.3744351 C121.906244,12.0392508 120.72267,11.2395128 118.035545,11.2395128 C116.915932,11.2395128 115.828317,11.3994329 114.740703,11.7193418 C114.260873,11.8472986 114.004994,11.8472986 113.908967,11.4634284 L113.749047,10.7916471 C113.62109,10.4077769 113.717049,10.1838613 114.100953,10.0879023 C115.476479,9.67203441 116.851971,9.44811876 118.195568,9.44811876 C122.290183,9.44811876 123.985549,10.8236448 123.985549,14.1505194 L123.985549,25.0908013 C123.985549,25.3467148 123.921588,25.4107103 123.633711,25.4107103 L122.57806,25.4107103 C122.290183,25.4107103 122.162158,25.3147514 122.162158,25.0908013 L122.098196,24.0031865 L122.034201,24.0031865 C121.330491,25.1227991 120.210878,25.6986215 118.643365,25.6986215 L117.043889,25.6986215 C115.6364,25.6986215 114.356867,25.2827536 113.62109,24.5469767 C112.853315,23.7792708 112.469479,22.7876149 112.469479,21.5400111 L112.469479,20.5803529 Z M114.580748,21.2840977 C114.580748,22.275788 114.804664,22.947535 115.252564,23.3634029 C115.668397,23.747273 116.308181,23.9391909 117.203912,23.9391909 L118.515443,23.9391909 C120.658709,23.9391909 121.906244,22.7876149 121.906244,20.6123507 L121.906244,17.9572231 C121.394452,17.8932619 120.754668,17.8612642 119.986893,17.8612642 L118.195568,17.8612642 C116.851971,17.8612642 115.924276,18.0851798 115.380521,18.5010477 C114.836661,18.9169156 114.580748,19.6206604 114.580748,20.6123507 L114.580748,21.2840977 L114.580748,21.2840977 Z" id="Fill-11"></path>
                        </g>
                    </g>
                </g>
            </g>
        </g>
    </g>
</svg>