<?xml version="1.0" encoding="UTF-8"?>
<svg width="263px" height="124px" viewBox="0 0 263 124" version="1.1" xmlns="http://www.w3.org/2000/svg" xmlns:xlink="http://www.w3.org/1999/xlink">
    <title>89C99869-0D0B-4127-8C6D-05CF1A60014D</title>
    <g id="Training-Theming-Courses" stroke="none" stroke-width="1" fill="none" fill-rule="evenodd">
        <g id="ACME-About" transform="translate(-814.000000, -3837.000000)">
            <g id="Press-#1" transform="translate(80.000000, 3779.000000)">
                <g id="#3" transform="translate(734.000000, 58.000000)">
                    <polygon id="Rectangle-5" points="0 0 262 0 262 124 0 124"></polygon>
                    <g id="Logo" transform="translate(42.000000, 22.000000)" fill="#615F67">
                        <g id="Logo-#6" transform="translate(28.000000, 24.000000)">
                            <path d="M31.6511069,23.8709138 C28.9214349,29.0338476 23.4944033,32.5598181 17.2594468,32.5598181 L1.41167137,32.5598181 L1.41167137,23.8709138 L31.6511069,23.8709138" id="Fill-2"></path>
                            <path d="M31.6507181,8.7135566 L0.0118595171,8.7135566 L0.0118595171,0.0246911257 L17.2594468,0.0246911257 C23.4944033,0.0246911257 28.9210072,3.55066165 31.6507181,8.7135566" id="Fill-3"></path>
                            <path d="M33.3281593,16.292449 C33.3281593,17.6450172 33.1510442,18.9988686 32.8003136,20.3320339 L3.70915146,20.3320339 L3.70915146,12.2529031 L32.8003136,12.2529031 C33.1510442,13.5856406 33.3281593,14.9394531 33.3281593,16.292449" id="Fill-4"></path>
                            <path d="M54.4562584,7.71066918 L54.4562584,21.9267695 L52.1377811,21.9267695 L51.9750919,20.5437943 C51.2022402,21.7437052 49.9616181,22.1504672 48.741371,22.1504672 C45.7923951,22.1504672 43.5755986,20.1980408 43.5755986,16.9033503 C43.5755986,13.4459316 45.7517228,11.6561944 48.6803625,11.6561944 C49.7379204,11.6561944 51.3852656,12.2256845 51.9750919,13.2628674 L51.9750919,7.71066918 L54.4562584,7.71066918 Z M46.0567651,16.9033503 C46.0567651,18.6523763 47.3177234,19.8523261 48.9040602,19.8523261 C50.4700997,19.8523261 51.8123638,18.7134236 51.8123638,16.9033503 C51.8123638,15.1542854 50.4700997,13.9747106 48.9040602,13.9747106 C47.3177234,13.9747106 46.0567651,15.0932769 46.0567651,16.9033503 L46.0567651,16.9033503 Z" id="Fill-5"></path>
                            <polyline id="Fill-6" points="66.7198545 11.9002672 60.5982051 26.1163286 57.8729269 26.1163286 59.7440088 21.7640803 55.7374751 11.9002672 58.6254425 11.9002672 60.1507708 16.2322183 61.1066479 19.0591383 62.1438696 16.2931878 63.9742402 11.9002672 66.7198545 11.9002672"></polyline>
                            <path d="M75.4038984,21.9267695 L75.4038984,16.6796526 C75.4038984,15.1542854 74.5700383,13.9950467 72.9837404,13.9950467 C71.4583732,13.9950467 70.4211515,15.2763412 70.4211515,16.8016695 L70.4211515,21.9267695 L67.9602822,21.9267695 L67.9602822,11.8798921 L70.1771176,11.8798921 L70.339768,13.2425312 C71.3566924,12.2459818 72.3735779,11.737539 73.6345362,11.737539 C75.9937247,11.737539 77.8851038,13.5069401 77.8851038,16.6592775 L77.8851038,21.9267695 L75.4038984,21.9267695" id="Fill-7"></path>
                            <path d="M87.9725757,11.9002672 L90.3520615,11.9002672 L90.3520615,21.9267695 L88.013248,21.9267695 L87.8912311,20.4624497 C87.3217799,21.6420245 85.7557404,22.2114757 84.6372129,22.2318507 C81.667862,22.252148 79.4714017,20.4217774 79.4714017,16.9033503 C79.4714017,13.4459316 81.7695428,11.6358583 84.6981825,11.6561944 C86.0405243,11.6561944 87.3217799,12.2866541 87.8912311,13.2832035 L87.9725757,11.9002672 Z M81.9526071,16.9033503 C81.9526071,18.8151044 83.2745738,19.9540069 84.9219191,19.9540069 C88.826772,19.9540069 88.826772,13.8730298 84.9219191,13.8730298 C83.2745738,13.8730298 81.9526071,14.9915961 81.9526071,16.9033503 L81.9526071,16.9033503 Z" id="Fill-8"></path>
                            <path d="M99.3119072,21.9267695 L99.3119072,16.5575967 C99.3119072,15.23563 98.620439,14.035719 97.2578388,14.035719 C95.915497,14.035719 95.1223481,15.23563 95.1223481,16.5575967 L95.1223481,21.9267695 L92.6411427,21.9267695 L92.6411427,11.8798921 L94.9393227,11.8798921 L95.1223481,13.1001781 C95.6511659,12.0832926 96.8103656,11.7172029 97.7662427,11.7172029 C98.9661925,11.7172029 100.166103,12.2053095 100.735555,13.5882847 C101.630423,12.1646372 102.789701,11.7578752 104.091293,11.7578752 C106.938588,11.7578752 108.341899,13.5069401 108.341899,16.5169244 L108.341899,21.9267695 L105.860694,21.9267695 L105.860694,16.5169244 C105.860694,15.1949577 105.311579,14.0763913 103.969237,14.0763913 C102.626973,14.0763913 101.793151,15.23563 101.793151,16.5575967 L101.793151,21.9267695 L99.3119072,21.9267695" id="Fill-9"></path>
                            <path d="M113.374262,9.07330825 C113.374262,11.0053986 110.445622,11.0053986 110.445622,9.07330825 C110.445622,7.14121794 113.374262,7.14121794 113.374262,9.07330825 Z M110.669358,21.9267695 L113.150564,21.9267695 L113.150564,11.859556 L110.669358,11.859556 L110.669358,21.9267695 Z" id="Fill-10"></path>
                            <path d="M123.990474,20.6454751 C122.831196,21.7844164 121.610949,22.2318507 120.126293,22.2318507 C117.217989,22.2318507 114.797831,20.4827858 114.797831,16.9236864 C114.797831,13.364587 117.217989,11.6155221 120.126293,11.6155221 C121.54994,11.6155221 122.648171,12.0222841 123.74644,13.1001781 L122.1804,14.7475234 C121.590613,14.2187444 120.858433,13.9543744 120.166965,13.9543744 C118.499284,13.9543744 117.278998,15.1746215 117.278998,16.9236864 C117.278998,18.8354406 118.580628,19.8523261 120.126293,19.8523261 C120.919442,19.8523261 121.71263,19.6286284 122.322753,19.018466 L123.990474,20.6454751" id="Fill-11"></path>
                        </g>
                    </g>
                </g>
            </g>
        </g>
    </g>
</svg>