<?xml version="1.0" encoding="UTF-8"?>
<svg width="263px" height="124px" viewBox="0 0 263 124" version="1.1" xmlns="http://www.w3.org/2000/svg" xmlns:xlink="http://www.w3.org/1999/xlink">
    <title>28833A3D-A197-4BE3-B81A-384016433A8C</title>
    <g id="Training-Theming-Courses" stroke="none" stroke-width="1" fill="none" fill-rule="evenodd">
        <g id="ACME-About" transform="translate(-1106.000000, -3837.000000)">
            <g id="Press-#1" transform="translate(80.000000, 3779.000000)">
                <g id="#4" transform="translate(1026.000000, 58.000000)">
                    <polygon id="Rectangle-5" points="0 0 262 0 262 124 0 124"></polygon>
                    <g id="Logo" transform="translate(42.000000, 22.000000)" fill="#615F67">
                        <g id="Logo-#4" transform="translate(36.000000, 14.000000)">
                            <polyline id="Fill-2" points="17.7504862 11.2076851 15.6719337 18.3357348 26.3630884 18.3357348 0.0303314917 52.9844917 6.96023204 28.7302376 0.426082873 28.7302376 6.76203315 0.0210331492 40.2228895 0.0210331492 31.8083867 11.2076851 17.7504862 11.2076851"></polyline>
                            <path d="M45.9335635,16.1994033 C47.1513481,16.1994033 48.0281768,16.3942707 48.7589171,16.7352265 L48.3448674,19.3901271 C47.930768,19.1952597 47.3462155,19.0491215 46.6155249,19.0491215 C45.3733757,19.0491215 44.3016298,19.4875359 44.0824475,20.9002376 L43.9119448,21.8988398 L47.4680387,21.8988398 L47.0295746,24.748558 L43.4491657,24.748558 L42.0608287,33.589989 L38.6752873,33.589989 L40.087989,24.748558 L38.0663702,24.748558 L38.5291492,21.8988398 L40.5264033,21.8988398 L40.7455856,20.559232 C41.2814088,17.1249613 43.741442,16.1994033 45.9335635,16.1994033" id="Fill-3"></path>
                            <path d="M60.6691989,21.8988398 L58.8180829,33.589989 L55.8465912,33.589989 L56.0901381,32.0798785 C55.0915359,33.2246188 53.678884,33.9309945 52.047,33.9309945 C49.026779,33.9309945 47.4923039,31.7389227 47.9307182,29.0109779 L49.0511436,21.8988398 L52.4123702,21.8988398 L51.340674,28.7917459 C51.0727127,30.3749006 51.8521326,31.0081823 53.0699669,31.0081823 C54.3852099,31.0081823 55.4812707,30.2288122 56.1145525,29.4493923 L57.3079724,21.8988398 L60.6691989,21.8988398" id="Fill-4"></path>
                            <path d="M66.6122818,39.2894254 C64.5663481,39.2894254 62.8370552,38.8023315 61.5948564,38.0959558 L62.0576354,35.2462376 C63.2267901,36.0500221 64.6638066,36.4397072 66.2957403,36.4397072 C68.3903536,36.4397072 70.2414696,35.5872431 70.6068398,33.3220773 L70.7772928,32.2503812 C70.144011,33.0298011 68.8774475,33.9309945 66.8071492,33.9309945 C63.1049669,33.9309945 61.4244033,30.8377293 61.9602265,27.5251823 C62.4473702,24.4562818 64.882989,21.5578343 68.4633978,21.5578343 C70.4362873,21.5578343 71.7272155,22.4103481 72.4579061,23.7499558 L72.7744972,21.8988398 L75.7947182,21.8988398 L73.9923812,33.3708066 C73.3104199,37.6575414 70.0466022,39.2894254 66.6122818,39.2894254 Z M67.7570718,31.0812762 C69.3402762,31.0812762 70.6068398,30.1313536 71.2644365,29.0840221 L71.7272155,26.2343039 C71.4349392,25.2357017 70.4850166,24.4075525 69.1210442,24.4075525 C67.0994254,24.4075525 65.6380939,25.8446188 65.321453,27.8418729 C65.0534917,29.5468011 65.9060055,31.0812762 67.7570718,31.0812762 L67.7570718,31.0812762 Z" id="Fill-5"></path>
                            <path d="M76.8420994,33.589989 L78.6932155,21.8988398 L82.0788066,21.8988398 L80.2276906,33.589989 L76.8420994,33.589989 Z M80.8366077,19.9746796 C79.7161823,19.9746796 78.814989,19.2683536 79.034221,17.8312873 C79.2290884,16.613453 80.1545967,16.1019945 81.1531989,16.1019945 C82.297989,16.1019945 83.1748674,16.8326851 82.9555856,18.2453867 C82.760768,19.4631713 81.8352099,19.9746796 80.8366077,19.9746796 L80.8366077,19.9746796 Z" id="Fill-6"></path>
                            <path d="M88.2895028,33.9309945 C84.5872707,33.9309945 82.9066575,30.8377293 83.4424807,27.5251823 C83.9296243,24.4562818 86.3165635,21.5578343 89.9457017,21.5578343 C92.0890939,21.5578343 93.3556077,22.7026243 93.9645249,23.8473646 L94.2812155,21.8988398 L97.2526575,21.8988398 L95.4015912,33.589989 L92.4300994,33.589989 L92.698011,31.8606961 C91.7968177,33.0054365 90.3598011,33.9309945 88.2895028,33.9309945 Z M89.2393757,31.0812762 C90.8225304,31.0812762 92.0890939,30.0826243 92.7466906,29.0352928 L93.2095193,26.3073978 C92.941558,25.2600663 91.9916851,24.4075525 90.6033481,24.4075525 C88.581779,24.4075525 87.1203481,25.8933481 86.8037072,27.8175083 C86.5357956,29.5468011 87.3883094,31.0812762 89.2393757,31.0812762 L89.2393757,31.0812762 Z" id="Fill-7"></path>
                            <path d="M104.925083,17.6851492 L104.267486,21.8988398 L107.969669,21.8988398 L107.50689,24.748558 L103.804707,24.748558 L103.049652,29.4250276 C102.854785,30.6672265 103.341878,31.0812762 104.584127,31.0812762 C105.412227,31.0812762 106.142917,30.9351381 106.849243,30.6428619 L106.410829,33.4195359 C105.680138,33.7361768 104.535348,33.9309945 103.366293,33.9309945 C101.149807,33.9309945 99.1769669,32.7862044 99.6396961,29.8878066 L100.44353,24.748558 L98.4706409,24.748558 L98.9333702,21.8988398 L100.881895,21.8988398 L101.442083,18.5132983 L104.925083,17.6851492" id="Fill-8"></path>
                        </g>
                    </g>
                </g>
            </g>
        </g>
    </g>
</svg>