<?xml version="1.0" encoding="UTF-8"?>
<svg width="161px" height="80px" viewBox="0 0 161 80" version="1.1" xmlns="http://www.w3.org/2000/svg" xmlns:xlink="http://www.w3.org/1999/xlink">
    <title>65422647-F738-4731-A3FD-EE3BD42A0E17</title>
    <g id="Training-Theming-Courses" stroke="none" stroke-width="1" fill="none" fill-rule="evenodd">
        <g id="ACME-Homepage" transform="translate(-131.000000, -2040.000000)" fill="#FFFFFF" fill-rule="nonzero">
            <g id="Footer-#7" transform="translate(0.000000, 1913.000000)">
                <g id="logo-copy" transform="translate(131.000000, 127.000000)">
                    <path d="M74.2412432,49.2 L74.2412432,47.996 L71.6693714,47.716 L73.2009355,43.292 L82.2169355,43.292 L83.7484996,47.744 L81.2055252,47.996 L81.2055252,49.2 L88.2564996,49.2 L88.2564996,47.996 L86.3781663,47.744 L79.1249099,28.2 L76.7553201,28.2 L69.588756,47.744 L67.7393201,47.996 L67.7393201,49.2 L74.2412432,49.2 Z M81.6967817,41.836 L73.6921919,41.836 L76.8420124,32.596 L77.6222432,29.852 L78.4313714,32.512 L81.6967817,41.836 Z M100.509012,49.508 C101.452995,49.508 102.242859,49.4473333 102.878602,49.326 C103.514346,49.2046667 104.178987,49.032 104.872525,48.808 C105.527534,48.584 106.086218,48.4626667 106.548577,48.444 L106.548577,48.444 L107.271012,44.692 L105.855038,44.496 L104.699141,47.128 C104.275312,47.464 103.755158,47.7206667 103.138679,47.898 C102.5222,48.0753333 101.66491,48.164 100.566807,48.164 C98.9870808,48.164 97.6577987,47.7206667 96.5789611,46.834 C95.5001235,45.9473333 94.6958116,44.7666667 94.1660252,43.292 C93.6362389,41.8173333 93.3713458,40.2026667 93.3713458,38.448 C93.3713458,36.5813333 93.6747688,34.976 94.281615,33.632 C94.8884611,32.288 95.7216705,31.266 96.7812432,30.566 C97.8408158,29.866 99.0352432,29.516 100.364525,29.516 C101.443363,29.516 102.358448,29.6 103.109782,29.768 C103.861115,29.936 104.381269,30.1413333 104.670243,30.384 L104.670243,30.384 L105.305987,33.632 L106.808653,33.632 L107.039833,29.068 C106.904978,29.0306667 106.558209,28.9466667 105.999525,28.816 C105.440841,28.6853333 104.703957,28.5453333 103.788871,28.396 C102.873786,28.2466667 101.924987,28.172 100.942474,28.172 C99.0159782,28.172 97.2724996,28.6153333 95.7120381,29.502 C94.1515765,30.3886667 92.9186193,31.6346667 92.0131663,33.24 C91.1077133,34.8453333 90.6549868,36.6653333 90.6549868,38.7 C90.6549868,40.8653333 91.0402859,42.76 91.8108842,44.384 C92.5814825,46.008 93.7084825,47.268 95.1918842,48.164 C96.6752859,49.06 98.447662,49.508 100.509012,49.508 Z M117.5585,49.2 L117.5585,47.996 L114.726551,47.744 L115.911346,34.976 L116.489294,29.376 L118.367628,34.808 L123.280192,48.192 L124.436089,48.192 L129.666525,33.24 L130.938012,29.376 L131.573756,34.976 L132.903038,47.744 L130.215577,47.996 L130.215577,49.2 L137.988987,49.2 L137.988987,47.996 L135.35932,47.716 L133.076423,29.908 L136.255141,29.6 L136.255141,28.396 L129.493141,28.396 L125.042935,41.332 L124.08932,45.084 L123.020115,41.332 L118.541012,28.396 L111.721218,28.396 L111.721218,29.6 L114.928833,29.908 L112.790423,47.744 L110.334141,47.996 L110.334141,49.2 L117.5585,49.2 Z M156.98591,49.2 L157.881731,44.468 L156.494654,44.048 L155.020885,47.548 L146.178269,47.772 L146.178269,39.148 L151.495397,39.232 L151.871064,41.612 L153.315936,41.612 L153.315936,35.424 L151.871064,35.424 L151.495397,37.748 L146.178269,37.832 L146.178269,29.684 L153.922782,29.824 L154.703013,32.512 L156.09009,32.512 L155.685526,28.396 L141.381295,28.396 L141.381295,29.6 L143.808679,29.908 L143.808679,47.744 L141.3235,47.996 L141.3235,49.2 L156.98591,49.2 Z" id="ACME"></path>
                    <g id="noun_trees_1371209" transform="translate(0.000000, 13.000000)">
                        <path d="M56.6213062,20.7812933 C57.5155692,15.9646673 54.0789821,11.3669788 48.9288999,10.4257898 C49.7690709,5.57280881 46.2242998,0.96784937 40.9817377,0.131685682 C40.4329657,0.0444338192 39.8737241,0 39.3223347,0 C34.5831773,0 30.5603027,3.14349073 29.7550298,7.47376838 C29.6843612,7.85347557 29.6398662,8.24126162 29.6232896,8.63147134 C26.4179022,9.76412979 24.1032879,12.3493702 23.5170004,15.5033635 C23.1592952,17.4253281 23.4908269,19.4070764 24.4505237,21.1375717 C23.9052414,22.0335191 23.5327045,23.0029842 23.3425101,24.0249621 C22.53113,28.3883631 25.2819701,32.6426993 29.7742237,34.0605421 C31.7573063,37.1797962 35.2497303,39.2189046 39.1103289,39.5501385 L39.1103289,47.3842248 L11.8156787,47.3842248 L11.8156787,42.8600541 C15.8315737,42.5207413 19.0299815,39.3917925 19.0832011,35.5890655 C19.0875633,35.2861076 19.0709867,34.981534 19.0352162,34.6801919 C20.4974452,33.7680868 21.4894227,32.357515 21.791291,30.7336609 C22.0844348,29.1558564 21.6970662,27.5667414 20.699854,26.2587714 C19.7916318,25.067945 18.4768472,24.2398602 16.964016,23.8973158 C17.1446135,22.4342314 16.7432857,20.9800336 15.818487,19.7682022 C14.8212747,18.4602321 13.3337446,17.5909451 11.6298465,17.3194948 C11.2642893,17.2613269 10.8926249,17.2314351 10.5244503,17.2314351 C7.36879262,17.2314351 4.68949357,19.3246719 4.15206335,22.2096386 C4.11716528,22.3994922 4.09186418,22.5925773 4.0770325,22.7864704 C2.04334768,23.5741608 0.582863602,25.254567 0.204219581,27.2912517 C-0.0243627539,28.5200488 0.169321515,29.783585 0.749501869,30.9025094 C0.430184561,31.459144 0.210326743,32.0585966 0.0942906719,32.6871332 C-0.439649744,35.5559421 1.34015164,38.3552727 4.26548206,39.3352404 C5.53228187,41.2604366 7.68025786,42.5385148 10.0707754,42.8269307 L10.0707754,47.3842248 L1.64550972,47.9745 L1.64550972,49 L55.1171996,49 L55.1171996,47.9745 C54.9503433,47.9502902 53.7514681,47.8920219 51.5205739,47.7996951 C49.2896796,47.7073684 45.7342749,47.5688783 40.8543598,47.3842248 L40.8543598,39.5703357 C47.1586955,39.2625305 52.2520683,34.4345941 52.3349512,28.525704 C52.3436757,27.9706852 52.3070328,27.4140506 52.2258947,26.8598397 C54.5614478,25.5009728 56.1501823,23.3148289 56.6213062,20.7812933 Z M5.61865459,38.2760997 L5.44678161,37.9876838 L5.10565301,37.8915452 C2.82506437,37.2573534 1.40994778,35.1382642 1.81389289,32.9618149 C1.92120445,32.386599 2.14542453,31.8461221 2.48306332,31.3557344 L2.76922746,30.9404801 L2.50051235,30.5147233 C1.94039839,29.626047 1.73537225,28.5798325 1.9238218,27.5675493 C2.22656253,25.93804 3.47940312,24.621991 5.19202572,24.1316032 L5.82280828,23.9506364 L5.80623169,23.3390655 C5.79837963,23.0506496 5.82106337,22.7630416 5.87253802,22.4851283 C6.26514127,20.3781574 8.22117789,18.8488261 10.5253227,18.8488261 C10.7940378,18.8488261 11.0662428,18.8706391 11.3340854,18.9134571 C12.5782015,19.1121975 13.6652763,19.7471971 14.3937734,20.7021203 C15.1222705,21.6570435 15.4058173,22.817978 15.1911942,23.9692178 C15.1667656,24.1000956 15.1336124,24.2277419 15.0969694,24.3537723 L14.860535,25.27638 L15.8839208,25.3676713 C15.9938497,25.377366 16.1029062,25.3862527 16.2154525,25.4040262 C17.4595685,25.6027666 18.5457708,26.2377663 19.274268,27.1934973 C20.0027651,28.1484205 20.2863119,29.309355 20.0716888,30.4622106 C19.8256574,31.7855306 18.9505884,32.9149575 17.6698294,33.5620754 L17.1132052,33.8432203 L17.2301137,34.42086 C17.3068895,34.7997593 17.3435325,35.1859296 17.3382977,35.571292 C17.2972925,38.4934215 14.879729,40.9065818 11.8156787,41.2378157 L11.8156787,35.7546825 L14.8771116,34.9581053 L14.4051153,33.4021137 L11.8156787,34.075892 L11.8156787,28.8520906 L10.0707754,28.8520906 L10.0707754,30.9622931 L7.88092174,29.4588142 L6.84270427,30.7570896 L10.0716479,32.9723175 L10.0716479,41.1949977 C8.20460131,40.904966 6.54956051,39.840978 5.61865459,38.2760997 Z M50.8517834,25.7352602 L50.2942868,26.017213 L50.4120677,26.5948526 C50.5394457,27.2258128 50.6005173,27.8680835 50.5900479,28.5046989 C50.5202518,33.5346073 46.2085956,37.6507947 40.8543598,37.9553683 L40.8543598,35.326502 L45.6179459,32.8664842 L44.7673055,31.4559124 L40.8543598,33.4772472 L40.8543598,23.996686 L46.0594064,22.6410506 L45.5874101,21.0858669 L40.8543598,22.3187034 L40.8543598,17.8850162 L39.1094565,17.8850162 L39.1094565,20.2593979 L35.318654,17.6596155 L34.2804365,18.9578909 L39.1094565,22.2710381 L39.1094565,30.6157093 L34.1120534,27.3987008 L35.1677199,23.5862791 L33.4769086,23.184759 L32.5835181,26.4138858 L31.0296817,25.4137209 L30.0333419,26.7402724 L39.108584,32.5845314 L39.108584,37.9141661 C35.770584,37.5780848 32.7684778,35.7635692 31.1265238,33.0005936 L30.9555233,32.7121777 L30.6135222,32.6168469 C26.7660104,31.5447801 24.3789826,27.9690694 25.0603674,24.3020675 C25.2409649,23.3317945 25.6213538,22.4196894 26.1893198,21.5916046 L26.4746115,21.1763503 L26.2067689,20.7514014 C25.2619037,19.2535778 24.9164129,17.4875354 25.2339853,15.7804689 C25.7443695,13.0312273 27.856575,10.8103443 30.7452624,9.98306733 L31.3769174,9.80210051 L31.3594684,9.19052958 C31.3463816,8.70337334 31.383897,8.21944866 31.4720146,7.75006595 C32.1324606,4.19697619 35.4329452,1.61819891 39.3197173,1.61819891 C39.7733922,1.61819891 40.2323018,1.65455385 40.6833593,1.72645585 C45.0159542,2.41719976 47.9351775,6.24335554 47.1892313,10.2569412 C47.1482261,10.4766867 47.0932616,10.6907769 47.0313176,10.9024434 L46.7861586,11.8250511 L47.8104169,11.9163424 C48.0049736,11.9333081 48.1986579,11.9502737 48.3940871,11.9809734 C52.7275545,12.6717173 55.6467777,16.498681 54.9008315,20.5106509 C54.486417,22.7404208 53.0102288,24.6462277 50.8517834,25.7352602 Z" id="Shape"></path>
                    </g>
                </g>
            </g>
        </g>
    </g>
</svg>