<?xml version="1.0" encoding="UTF-8"?>
<svg width="139px" height="170px" viewBox="0 0 139 170" version="1.1" xmlns="http://www.w3.org/2000/svg" xmlns:xlink="http://www.w3.org/1999/xlink">
    <title>3A9073BD-E307-438B-BA47-3B1FEF1B85F0</title>
    <g id="Training-Theming-Courses" stroke="none" stroke-width="1" fill="none" fill-rule="evenodd">
        <g id="ACME-About" transform="translate(-500.000000, -3365.000000)">
            <g id="tree-3" transform="translate(500.000000, 3365.000000)">
                <path d="M137.507,108.396 C133.339,121.183 116.292,126.115 104.63,121.183 C96.108,117.594 88.931,105.931 93.417,97.408 C97.901,88.884 106.872,83.053 116.292,82.156 C128.404,81.707 140.067,92.474 138.409,104.438 C138.267,105.742 137.974,107.05 137.507,108.396" id="Fill-101" fill="#07977D"></path>
                <path d="M127.417,111.59 C124.601,120.229 113.083,123.562 105.2,120.229 C99.442,117.804 94.593,109.924 97.624,104.163 C100.653,98.404 106.716,94.465 113.083,93.857 C121.265,93.555 129.146,100.829 128.026,108.914 C127.931,109.797 127.733,110.68 127.417,111.59" id="Fill-102" fill="#09B999"></path>
                <path d="M81.259,49.98 C88.917,35.354 110.56,32.866 123.667,41.222 C133.251,47.309 139.554,62.892 132.382,72.293 C125.21,81.691 113.159,86.919 101.575,86.078 C86.82,84.146 74.903,68.73 79.354,54.587 C79.798,53.038 80.417,51.514 81.259,49.98" id="Fill-103" fill="#07977D"></path>
                <path d="M104.224,52.412 C107.626,45.915 117.239,44.811 123.062,48.522 C127.319,51.227 130.119,58.149 126.935,62.326 C123.749,66.501 118.394,68.821 113.249,68.45 C106.694,67.591 101.399,60.743 103.378,54.458 C103.575,53.771 103.849,53.094 104.224,52.412" id="Fill-104" fill="#09B999"></path>
                <path d="M59.789,55.615 C55.622,42.83 38.576,37.896 26.914,42.83 C18.391,46.419 11.213,58.081 15.699,66.604 C20.185,75.127 29.155,80.958 38.576,81.855 C50.687,82.303 62.351,71.539 60.692,59.575 C60.55,58.271 60.258,56.962 59.789,55.615" id="Fill-105" fill="#07977D"></path>
                <path d="M55.89,57.377 C53.409,49.764 43.259,46.827 36.314,49.764 C31.239,51.899 26.966,58.846 29.637,63.921 C32.307,68.994 37.649,72.468 43.259,73.002 C50.471,73.269 57.415,66.858 56.429,59.733 C56.342,58.957 56.17,58.179 55.89,57.377" id="Fill-106" fill="#09B999"></path>
                <path d="M3.542,114.031 C11.2,128.657 32.841,131.145 45.95,122.791 C55.534,116.703 61.836,101.119 54.666,91.72 C47.494,82.319 35.443,77.095 23.856,77.934 C9.104,79.866 -2.812,95.281 1.639,109.427 C2.081,110.975 2.7,112.498 3.542,114.031" id="Fill-107" fill="#07977D"></path>
                <path d="M11.757,112.671 C15.902,120.588 27.616,121.933 34.712,117.41 C39.899,114.116 43.313,105.681 39.429,100.591 C35.548,95.505 29.024,92.678 22.754,93.128 C14.77,94.177 8.318,102.521 10.727,110.178 C10.967,111.015 11.3,111.839 11.757,112.671" id="Fill-108" fill="#09B999"></path>
                <path d="M45.874,14.856 C53.31,-0.626 73.549,-3.664 85.609,4.829 C94.429,11.016 99.998,27.221 93.119,37.216 C86.242,47.208 74.894,52.928 64.103,52.278 C50.378,50.548 39.568,34.632 44.004,19.72 C44.448,18.088 45.057,16.479 45.874,14.856" id="Fill-109" fill="#07977D"></path>
                <path d="M68.986,21.792 C72.289,14.914 81.28,13.564 86.639,17.337 C90.556,20.087 93.032,27.286 89.975,31.726 C86.921,36.165 81.878,38.704 77.084,38.419 C70.987,37.649 66.185,30.578 68.156,23.952 C68.354,23.229 68.623,22.515 68.986,21.792" id="Fill-110" fill="#09B999"></path>
                <path d="M18.887,93.603 L47.655,107.288 L31.736,108.406 L33.691,110.081 L51.006,109.244 L67.641,118.414 L67.321,169.452 C70.628,169.316 73.934,169.196 77.241,169.111 L76.515,125.103 L120.909,109.888 C120.425,109.088 120.151,108.16 120.093,107.214 L102.694,112.285 L108.887,96.123 L107.214,96.123 L100.165,112.314 L75.808,120.57 L74.747,84.664 L82.071,77.892 L99.694,77.649 L100.512,76.014 L84.103,76.014 L100.724,60.644 L100.165,58.13 L88.917,68.005 L93.423,50.652 L92.06,51.197 L86.112,70.467 L75.028,80.197 L72.514,26.288 L70.001,26.288 L69.721,53.941 L56.315,41.651 L53.8,41.929 L69.161,57.013 L68.104,92.397 L52.963,79.916 L51.566,67.903 L50.448,65.951 L50.448,78.24 L40.115,71.537 L37.322,71.257 L68.104,96.048 L67.901,112.668 L37.322,98.351 L33.131,88.296 L30.898,87.737 L34.809,97.513 L18.608,92.486 L18.887,93.603" id="Fill-111" fill="#343338"></path>
            </g>
        </g>
    </g>
</svg>