<?xml version="1.0" encoding="UTF-8"?>
<svg width="141px" height="166px" viewBox="0 0 141 166" version="1.1" xmlns="http://www.w3.org/2000/svg" xmlns:xlink="http://www.w3.org/1999/xlink">
    <title>C1692B29-BDB6-4E09-A522-4FCB647185F7</title>
    <g id="Training-Theming-Courses" stroke="none" stroke-width="1" fill="none" fill-rule="evenodd">
        <g id="ACME-About" transform="translate(-499.000000, -2952.000000)">
            <g id="tree-1" transform="translate(499.000000, 2952.000000)">
                <polyline id="Fill-97" fill="#09B999" points="105.345 134.907 83.059 95.291 93.506 94.483 76.791 68.611 87.238 67.803 64.952 38.699 74.702 37.89 53.113 0.699 52.875 1.628 52.868 0.425 31.278 37.613 41.028 38.422 18.742 67.527 29.188 68.336 12.474 94.207 22.922 95.016 0.635 134.63 18.945 134.391 18.927 134.465 105.345 134.907"></polyline>
                <polygon id="Fill-98" fill="#343338" points="48.997 165.452 56.983 165.452 56.983 125.52 48.997 125.52"></polygon>
                <polyline id="Fill-99" fill="#07977D" points="140.567 145.651 118.28 106.036 128.729 105.227 112.013 79.356 122.46 78.547 100.174 49.442 109.924 48.634 88.334 11.444 88.099 12.372 88.089 11.168 66.5 48.357 76.25 49.166 53.964 78.271 64.412 79.079 47.696 104.952 58.144 105.759 35.857 145.375 54.167 145.136 54.149 145.209 140.567 145.651"></polyline>
                <polygon id="Fill-100" fill="#343338" points="84.22 165.173 92.206 165.173 92.206 135.888 84.22 135.888"></polygon>
            </g>
        </g>
    </g>
</svg>