<?xml version="1.0" encoding="UTF-8"?>
<svg width="133px" height="177px" viewBox="0 0 133 177" version="1.1" xmlns="http://www.w3.org/2000/svg" xmlns:xlink="http://www.w3.org/1999/xlink">
    <title>68F8197A-CE4B-4787-95F8-BB301A269AD0</title>
    <g id="Training-Theming-Courses" stroke="none" stroke-width="1" fill="none" fill-rule="evenodd">
        <g id="ACME-About" transform="translate(-503.000000, -3154.000000)">
            <g id="tree-2" transform="translate(503.000000, 3154.000000)">
                <path d="M132.941,66.464 C132.941,102.919 103.388,132.473 66.932,132.473 C30.477,132.473 0.923,102.919 0.923,66.464 C0.923,30.008 30.477,0.455 66.932,0.455 C103.388,0.455 132.941,30.008 132.941,66.464" id="Fill-34" fill="#07977D"></path>
                <path d="M105.721,58.298 C105.721,85.734 83.479,107.975 56.045,107.975 C28.609,107.975 6.368,85.734 6.368,58.298 C6.368,30.862 28.609,8.621 56.045,8.621 C83.479,8.621 105.721,30.862 105.721,58.298" id="Fill-35" fill="#38C6AC"></path>
                <path d="M108.141,52.82 C108.141,61.016 101.497,67.661 93.301,67.661 C85.104,67.661 78.46,61.016 78.46,52.82 C78.46,44.625 85.104,37.98 93.301,37.98 C101.497,37.98 108.141,44.625 108.141,52.82" id="Fill-36" fill="#09B999"></path>
                <path d="M116.249,77.622 C116.249,83.712 111.313,88.647 105.225,88.647 C99.136,88.647 94.2,83.712 94.2,77.622 C94.2,71.534 99.136,66.598 105.225,66.598 C111.313,66.598 116.249,71.534 116.249,77.622" id="Fill-37" fill="#09B999"></path>
                <path d="M109.095,102.424 C109.095,108.513 104.159,113.448 98.071,113.448 C91.982,113.448 87.046,108.513 87.046,102.424 C87.046,96.335 91.982,91.398 98.071,91.398 C104.159,91.398 109.095,96.335 109.095,102.424" id="Fill-38" fill="#09B999"></path>
                <path d="M74.278,37.083 C74.278,43.171 69.342,48.106 63.254,48.106 C57.166,48.106 52.229,43.171 52.229,37.083 C52.229,30.993 57.166,26.058 63.254,26.058 C69.342,26.058 74.278,30.993 74.278,37.083" id="Fill-41" fill="#09B999"></path>
                <polyline id="Fill-42" fill="#343338" points="93.452 81.786 106.431 83.926 96.305 79.934 111.564 71.09 66.417 86.688 65.458 72.484 99.3 56.114 84.324 60.109 84.039 52.692 82.756 60.536 65.088 66.996 63.074 37.146 59.896 74.255 43.107 66.526 42.109 59.395 41.68 66.098 30.128 61.677 59.441 79.568 57.555 101.598 41.253 92.769 37.829 79.505 37.829 91.057 27.133 87.207 57.048 107.519 50.607 176.803 72.487 176.63 68.681 120.241 104.149 101.326 95.164 103.787 94.736 94.907 93.024 104.321 68.207 113.211 67.063 96.266 93.452 81.786"></polyline>
            </g>
        </g>
    </g>
</svg>